<svg width="120" height="30" xmlns="http://www.w3.org/2000/svg"><path d="M18.72 24.26c-.23.31-.58.54-1.03.66-2.5.72-5.07 1.12-7.65 1.2h-.15a2.7 2.7 0 0 1-2.68-1.76c-.76-1.78-1.57-3.7-2.42-5.6-.05-.1-.2-.29-.34-.45l-.14-.15c-.07-.1-.17-.19-.27-.3-.21-.21-.46-.46-.67-.79-.69-1.07-.4-2.32.69-3.04.33-.22.72-.4 1.11-.49 1.37-.36 2.73-.7 4.04-1l-.12-.23c-.26-.45-.43-.8-.59-1.07-.2-.37-.34-.65-.59-1.07-.47-.84-1.2-2.12-1.07-3.61 0-.08.16-1.63 1.25-2 .2-.07.41-.1.62-.1.77 0 1.44.48 1.84 1.33.36.77.83 1.74 1.28 2.42.6.95 1.5 1.78 2.9 2.7l1.71 1.13 1.75 1.14c.26.17.44.44.56.72.08-.18.26-.3.48-.3h1.2v11.16h-1.2c-.29 0-.51-.2-.51-.47v-.03zm-1.36-.48c.37-.1.5-.26.5-.67-.02-1.32-.01-2.64-.01-3.96 0-1.33.02-2.65 0-3.97-.01-.22-.16-.9-.32-1-1.37-.93-2.1-1.38-3.46-2.28a10.85 10.85 0 0 1-3.25-3.05c-.47-.74-.97-1.76-1.35-2.56-.15-.32-.49-.82-.99-.61-.23.05-.42.64-.45.98-.1 1.07.4 2 .92 2.94.43.75.6 1.1 1.18 2.15.59 1.04.48 1.66-.64 1.93-1.34.32-2.68.66-4.01 1-.27.07-.54.18-.76.33-.53.36-.69.9-.34 1.44.22.35.57.62.85.95.24.28.5.56.65.89A355.4 355.4 0 0 1 8.3 23.9c.32.74.83 1.06 1.68 1.03 2.52-.09 4.96-.47 7.37-1.16zM21.5 13.6h.56c.29 0 .52.23.52.51v10.16c0 .28-.23.5-.52.5h-.56V13.6zM28.2 4.2h3.38v13.4l5.22-5.61h4.35l-5.81 6.14 6.17 7.4h-4.48l-5.39-6.92h-.06v6.92H28.2V4.2zm22.55 19.46h-.08a4.36 4.36 0 0 1-1.86 1.68c-.75.35-1.58.52-2.48.52a6.6 6.6 0 0 1-1.82-.25 4.93 4.93 0 0 1-1.58-.76 3.6 3.6 0 0 1-1.54-3.05 3.85 3.85 0 0 1 1.45-3.17c.44-.35.96-.63 1.54-.83.58-.21 1.19-.37 1.82-.47.63-.1 1.26-.17 1.9-.2.64-.02 1.24-.04 1.8-.04h.85v-.37c0-.84-.29-1.48-.87-1.9a3.7 3.7 0 0 0-2.23-.63 5.24 5.24 0 0 0-3.61 1.4l-1.78-1.77a6.56 6.56 0 0 1 2.64-1.67 9.71 9.71 0 0 1 5.54-.18c.66.22 1.2.5 1.64.83.43.34.77.73 1 1.17.24.45.4.9.5 1.34.11.46.17.9.2 1.32l.02 1.11v7.79h-3.05v-1.87zm-.2-4.2h-.7c-.47 0-1 .02-1.58.06-.58.03-1.13.12-1.65.26-.52.15-.95.35-1.31.63-.36.27-.54.65-.54 1.14 0 .32.07.59.22.8.14.22.32.4.55.55.22.15.47.26.76.33.28.06.56.1.84.1 1.17 0 2.03-.28 2.58-.84.56-.55.84-1.3.84-2.27v-.76zm5.16-.7a6.83 6.83 0 0 1 4.49-6.6c.9-.34 1.85-.51 2.87-.51 1.01 0 1.97.17 2.88.5a6.83 6.83 0 0 1 4.49 6.6c-.01 1.08-.2 2.05-.59 2.92a6.83 6.83 0 0 1-3.9 3.69c-.9.33-1.87.5-2.88.5a8.13 8.13 0 0 1-2.88-.5 6.83 6.83 0 0 1-4.49-6.6zm3.38 0c0 .52.09 1.03.27 1.52a3.82 3.82 0 0 0 3.7 2.54A3.93 3.93 0 0 0 66 21.58c.35-.38.6-.81.79-1.3a4.4 4.4 0 0 0-.8-4.35 3.93 3.93 0 0 0-2.91-1.24 3.93 3.93 0 0 0-2.92 1.24c-.35.38-.61.81-.8 1.3-.17.5-.26 1-.26 1.53zm24.16 4.73h-.05a4.35 4.35 0 0 1-1.98 1.81 6.4 6.4 0 0 1-2.68.56 6.29 6.29 0 0 1-6.23-4.32 8.44 8.44 0 0 1 .03-5.58c.32-.86.76-1.61 1.34-2.25a6.18 6.18 0 0 1 4.72-2.06 5.83 5.83 0 0 1 3.95 1.37c.26.23.48.46.65.69h.08V4.2h3.39v21.33h-3.22v-2.04zm-8-4.73c0 .52.08 1.03.26 1.52a3.82 3.82 0 0 0 3.7 2.54 3.93 3.93 0 0 0 2.93-1.24c.35-.38.6-.81.79-1.3a4.4 4.4 0 0 0-.8-4.35 3.93 3.93 0 0 0-2.91-1.24 3.93 3.93 0 0 0-2.92 1.24c-.35.38-.61.81-.8 1.3-.17.5-.26 1-.26 1.53zm14.08-6.77h3.39v13.54h-3.39V11.99zm-.48-4.6A2.08 2.08 0 0 1 91 5.36c.63 0 1.15.19 1.57.57.43.39.64.87.64 1.46 0 .58-.21 1.06-.64 1.45-.42.39-.94.58-1.56.58a2.08 2.08 0 0 1-2.15-2.03zm6.56 4.6h3.22v2.11h.06c.3-.64.78-1.2 1.45-1.7a4.4 4.4 0 0 1 2.7-.75c2.12 0 3.53.83 4.22 2.5.5-.86 1.1-1.5 1.84-1.9.73-.4 1.6-.6 2.62-.6.9 0 1.66.15 2.28.45a4 4 0 0 1 1.51 1.24c.39.53.67 1.14.84 1.85.17.7.25 1.46.25 2.27v8.07h-3.38v-7.68c0-.41-.04-.81-.12-1.2-.07-.38-.2-.72-.4-1.01a2 2 0 0 0-.75-.7 2.65 2.65 0 0 0-1.25-.25 2.62 2.62 0 0 0-2.24 1.09c-.23.33-.4.7-.5 1.13-.1.42-.16.85-.16 1.28v7.34h-3.39v-8.07a3.4 3.4 0 0 0-.53-2.02c-.36-.5-.95-.75-1.78-.75-.56 0-1.04.1-1.42.29-.39.18-.7.44-.96.76s-.44.68-.55 1.1c-.12.41-.17.84-.17 1.3v7.39H95.4V11.99z" fill="#E3193A" fill-rule="nonzero"/></svg>